Coordinates
version=1
nRows=38
nColumns=12
inDegrees=yes

Units are S.I. units (second, meters, Newtons, ...)
Angles are in degrees

endheader
time	SC_y	SC_z	SC_x	AC_y	AC_z	AC_x	GH_y	GH_z	GH_yy	EL_x	PS_y
       0.0               -23.6          7.574          35.84          51.65         -12.03          -3.26         -71.89         -11.12         -164.2          132.7          116.3
   0.01805              -23.59          7.572          35.84          51.66         -12.03         -3.261         -71.88          -11.1         -164.2          132.7          116.3
   0.03611              -23.59           7.57          35.85          51.66         -12.02         -3.263         -71.88         -11.09         -164.2          132.7          116.3
   0.05416              -23.59          7.568          35.85          51.66         -12.02         -3.265         -71.87         -11.08         -164.1          132.7          116.3
   0.07221              -23.59          7.566          35.85          51.66         -12.02         -3.267         -71.86         -11.06         -164.1          132.7          116.3
   0.09027              -23.59          7.563          35.86          51.67         -12.01         -3.269         -71.85         -11.04         -164.0          132.6          116.3
    0.1083              -23.58          7.561          35.86          51.67         -12.01         -3.271         -71.85         -11.03         -164.0          132.6          116.3
    0.1264              -23.58          7.558          35.86          51.67          -12.0         -3.274         -71.84         -11.01         -163.9          132.6          116.3
    0.1444              -23.58          7.555          35.87          51.67          -12.0         -3.276         -71.83         -10.99         -163.8          132.6          116.3
    0.1625              -23.58          7.552          35.87          51.68         -11.99         -3.279         -71.82         -10.96         -163.8          132.5          116.3
    0.1805              -23.57          7.549          35.88          51.68         -11.99         -3.282          -71.8         -10.94         -163.7          132.5          116.3
    0.1986              -23.57          7.546          35.88          51.69         -11.98         -3.285         -71.79         -10.92         -163.6          132.5          116.3
    0.2166              -23.57          7.542          35.89          51.69         -11.98         -3.288         -71.78         -10.89         -163.5          132.4          116.3
    0.2347              -23.56          7.538          35.89          51.69         -11.97         -3.292         -71.76         -10.86         -163.5          132.4          116.3
    0.2527              -23.56          7.533           35.9           51.7         -11.96         -3.296         -71.75         -10.83         -163.4          132.3          116.3
    0.2708              -23.55          7.529          35.91           51.7         -11.96           -3.3         -71.73         -10.79         -163.3          132.3          116.3
    0.2889              -23.55          7.523          35.92          51.71         -11.95         -3.305         -71.71         -10.75         -163.1          132.2          116.3
    0.3069              -23.54          7.518          35.92          51.72         -11.94          -3.31         -71.69         -10.71         -163.0          132.2          116.3
     0.325              -23.54          7.512          35.93          51.72         -11.93         -3.316         -71.67         -10.67         -162.9          132.1          116.3
     0.343              -23.53          7.505          35.94          51.73         -11.92         -3.322         -71.65         -10.62         -162.7          132.1          116.3
    0.3611              -23.52          7.497          35.95          51.74         -11.91         -3.328         -71.62         -10.57         -162.6          132.0          116.3
    0.3791              -23.52          7.489          35.97          51.75         -11.89         -3.336         -71.59         -10.51         -162.4          131.9          116.3
    0.3972              -23.51           7.48          35.98          51.76         -11.88         -3.344         -71.56         -10.44         -162.2          131.8          116.3
    0.4152               -23.5           7.47          35.99          51.77         -11.86         -3.353         -71.53         -10.37         -162.0          131.7          116.3
    0.4333              -23.49          7.459          36.01          51.78         -11.84         -3.363         -71.49         -10.29         -161.7          131.6          116.2
    0.4513              -23.47          7.446          36.03          51.79         -11.82         -3.374         -71.45          -10.2         -161.5          131.5          116.2
    0.4694              -23.46          7.433          36.05          51.81          -11.8         -3.386          -71.4          -10.1         -161.2          131.4          116.2
    0.4874              -23.45          7.417          36.07          51.83         -11.78           -3.4         -71.34         -9.987         -160.8          131.2          116.2
    0.5055              -23.43          7.399           36.1          51.84         -11.75         -3.416         -71.28         -9.859         -160.4          131.0          116.2
    0.5235              -23.41          7.379          36.13          51.87         -11.71         -3.434         -71.21         -9.714         -160.0          130.8          116.2
    0.5416              -23.39          7.356          36.16          51.89         -11.68         -3.455         -71.13         -9.549         -159.5          130.6          116.2
    0.5596              -23.36           7.33           36.2          51.92         -11.63         -3.479         -71.04         -9.359         -158.9          130.3          116.1
    0.5777              -23.33          7.299          36.24          51.95         -11.59         -3.506         -70.93          -9.14         -158.2          130.0          116.1
    0.5958               -23.3          7.264           36.3          51.99         -11.53         -3.538         -70.81         -8.885         -157.5          129.7          116.1
    0.6138              -23.26          7.223          36.36          52.04         -11.46         -3.575         -70.66         -8.587         -156.6          129.3          116.1
    0.6319              -23.21          7.174          36.43          52.09         -11.38         -3.618         -70.49         -8.236         -155.5          128.8          116.0
    0.6499              -23.16          7.116          36.51          52.15         -11.29          -3.67         -70.29         -7.819         -154.2          128.2          116.0
     0.668              -23.09          7.047          36.62          52.23         -11.18         -3.733         -70.05         -7.318         -152.7          127.6          115.9
